<?xml version="1.0" standalone="no"?>
<!DOCTYPE svg PUBLIC "-//W3C//DTD SVG 20010904//EN"
 "http://www.w3.org/TR/2001/REC-SVG-20010904/DTD/svg10.dtd">
<svg version="1.0" xmlns="http://www.w3.org/2000/svg"
 width="1150.000000pt" height="1150.000000pt" viewBox="0 0 1150.000000 1150.000000"
 preserveAspectRatio="xMidYMid meet">
<metadata>
Created by potrace 1.14, written by Peter Selinger 2001-2017
</metadata>
<g transform="translate(0.000000,1150.000000) scale(0.100000,-0.100000)"
fill="#000000" stroke="none">
<path d="M2125 9108 c-241 -210 -425 -533 -571 -1003 -18 -59 -28 -113 -28
-158 -1 -62 1 -69 24 -83 22 -12 278 -135 290 -139 6 -2 106 -49 285 -135 72
-34 171 -82 220 -105 50 -23 137 -65 195 -92 58 -28 146 -70 195 -93 50 -24
146 -70 215 -102 69 -33 161 -77 205 -98 44 -21 151 -72 239 -114 87 -42 159
-76 161 -76 1 0 76 -35 166 -79 271 -130 360 -171 383 -176 11 -2 70 -18 130
-34 148 -41 156 -42 273 -47 101 -3 146 5 228 41 71 32 506 38 671 9 13 -2 36
-6 51 -9 14 -2 49 -15 77 -29 53 -25 141 -67 406 -191 465 -218 890 -426 890
-435 0 -6 -30 -21 -235 -115 -124 -57 -308 -148 -440 -218 -256 -136 -212
-116 -665 -293 -173 -68 -176 -68 -280 -70 -97 -2 -121 1 -295 46 -186 47
-247 54 -330 36 -11 -2 -42 -7 -70 -10 -27 -4 -77 -11 -110 -16 -33 -5 -78
-12 -100 -15 -77 -11 -83 -13 -285 -107 -36 -17 -108 -50 -160 -73 -126 -56
-399 -180 -480 -217 -36 -17 -182 -83 -325 -148 -143 -65 -291 -132 -330 -150
-84 -39 -154 -71 -215 -98 -186 -83 -266 -119 -338 -153 -46 -21 -86 -39 -88
-39 -2 0 -68 -31 -146 -69 -79 -38 -213 -103 -300 -144 l-156 -75 -16 -73
c-53 -229 23 -493 228 -794 96 -142 123 -176 189 -238 87 -81 126 -106 167
-106 19 0 55 0 80 -1 35 0 57 7 100 35 30 19 57 35 61 35 4 0 56 23 115 51 60
28 123 57 139 64 17 7 64 29 105 48 62 29 749 344 965 442 33 15 94 43 135 62
100 47 361 163 366 163 2 0 70 28 151 61 181 75 338 156 415 213 131 98 168
143 404 495 126 188 237 354 246 368 9 15 39 39 65 53 74 41 262 136 323 163
660 298 854 387 1055 487 132 65 265 127 295 138 30 11 80 31 110 45 l55 24
120 -57 c126 -61 212 -100 219 -100 3 0 53 -23 113 -51 59 -28 149 -71 198
-94 50 -23 142 -67 205 -98 168 -80 344 -164 435 -207 44 -21 130 -61 190 -90
61 -29 146 -69 190 -90 44 -21 137 -65 207 -98 70 -34 149 -71 175 -83 71 -32
326 -159 338 -168 5 -4 48 -29 95 -54 47 -25 100 -53 118 -64 26 -14 45 -43
90 -131 65 -130 106 -177 171 -196 39 -11 54 -11 96 1 125 37 197 132 295 391
42 111 43 115 32 174 -14 74 -47 144 -77 164 -25 16 -30 17 -200 10 -180 -7
-417 44 -600 129 -114 53 -234 110 -404 191 -73 35 -134 64 -136 64 -1 0 -61
27 -131 61 -71 34 -160 76 -199 94 -188 88 -247 116 -335 158 -138 65 -448
211 -501 235 -25 12 -91 43 -147 70 l-101 50 182 82 c100 45 197 91 215 101
18 11 37 19 41 19 5 0 60 24 122 54 109 51 159 74 294 136 33 15 92 42 130 60
39 18 113 51 165 75 126 57 229 105 378 176 68 33 125 59 127 59 2 0 75 34
162 76 87 42 185 89 218 104 140 64 298 92 533 94 117 1 123 2 156 28 20 16
50 60 75 110 47 96 50 130 25 254 -34 165 -99 249 -231 302 -119 46 -151 37
-193 -54 -28 -62 -113 -159 -185 -212 -16 -12 -68 -52 -115 -88 -47 -37 -116
-81 -155 -99 -38 -18 -110 -52 -160 -75 -85 -40 -123 -57 -282 -131 -38 -17
-99 -46 -138 -64 -38 -18 -97 -45 -130 -60 -33 -15 -107 -50 -164 -76 -57 -27
-105 -49 -106 -49 -2 0 -64 -29 -140 -65 -75 -36 -138 -65 -140 -65 -1 0 -56
-25 -120 -55 -65 -31 -136 -64 -159 -75 -23 -10 -81 -37 -131 -60 -49 -23
-151 -70 -225 -105 -74 -34 -160 -73 -190 -88 -264 -123 -282 -130 -305 -108
-6 5 -147 77 -315 161 -168 83 -327 163 -355 177 -27 15 -58 30 -67 35 -27 12
-27 12 -449 223 -217 108 -423 211 -459 228 -104 52 -216 176 -405 452 -130
190 -255 333 -355 406 -19 14 -87 53 -150 86 -172 91 -303 160 -420 223 -58
31 -141 73 -185 95 -44 21 -176 85 -293 142 -117 56 -214 103 -216 103 -4 0
-160 73 -332 156 -51 24 -116 54 -145 67 -134 61 -392 184 -680 326 -114 55
-213 101 -220 101 -8 0 -41 -23 -74 -52z"/>
</g>
</svg>
